<svg xmlns="http://www.w3.org/2000/svg" xmlns:xlink="http://www.w3.org/1999/xlink" viewBox="0,0,256,256" width="50px" height="50px"><g fill="#54d264" fill-rule="nonzero" stroke="none" stroke-width="1" stroke-linecap="butt" stroke-linejoin="miter" stroke-miterlimit="10" stroke-dasharray="" stroke-dashoffset="0" font-family="none" font-weight="none" font-size="none" text-anchor="none" style="mix-blend-mode: normal"><g transform="scale(5.12,5.12)"><path d="M9.43359,8c-0.45703,0 -1.01562,0.23438 -1.33203,0.55469c-1.83594,1.82031 -3.67578,3.63672 -5.52344,5.44922c-0.32031,0.3125 -0.57812,0.875 -0.57812,1.35938v0.00391c0.00781,8.39453 0.00781,25.44141 0.00781,25.62891v1h1c0.1875,0 25.17578,-0.00391 37.54297,0.00391c0.5,0 1.06641,-0.25781 1.39063,-0.57812l0.00391,-0.00391c1.81641,-1.80859 3.64063,-3.60937 5.47266,-5.40234c0.34375,-0.33984 0.58203,-0.92187 0.58203,-1.39844c-0.00781,-8.37109 0,-25.61719 0,-25.61719v-1zM9.48047,10h36.51953c0,1.25391 -0.00781,16.55078 0,24.60547c-1.82812,1.78906 -3.65234,3.58984 -5.46484,5.39453c-12.04297,-0.00781 -35.09375,-0.00781 -36.52734,-0.00391c0,-1.39844 0,-16.5 -0.00781,-24.58594c1.83203,-1.79687 3.66016,-3.59766 5.48047,-5.41016zM19.09375,14c-0.31641,0 -0.62891,0.00781 -0.94531,0.01953c-0.76562,0.03125 -1.51953,0.16016 -2.25781,0.375c-1.67187,0.49609 -2.92578,1.48828 -3.65625,3.07031c-0.25391,0.55078 -0.46875,1.125 -0.64062,1.70703c-0.47266,1.59375 -0.57031,3.23438 -0.58984,4.87891c-0.01172,1.10938 0.05469,2.21484 0.21484,3.3125c0.15625,1.02734 0.39844,2.03125 0.80859,2.99609c0.74219,1.73438 2.04688,2.82422 3.88281,3.30078c1.59766,0.41797 3.21094,0.47266 4.875,0.24219c0.83594,1.34766 1.67969,2.71484 2.53516,4.09766c1.01172,-0.46875 1.97266,-0.91016 2.96094,-1.36719c-0.81641,-1.29687 -1.60156,-2.55078 -2.37891,-3.78906c0.33984,-0.30469 0.67578,-0.57422 0.97266,-0.87891c0.76953,-0.80859 1.23438,-1.78125 1.53906,-2.83984c0.43359,-1.51172 0.54297,-3.06641 0.58203,-4.625c0.02734,-1.20703 -0.05078,-2.41016 -0.21484,-3.60547c-0.15625,-1.11328 -0.42578,-2.19922 -0.88672,-3.23437c-0.78516,-1.75781 -2.12109,-2.85937 -4,-3.34375c-0.92578,-0.23437 -1.85937,-0.3125 -2.80078,-0.31641zM31,16v4h-2v3h2v7c0,0.76953 0.16016,1.61328 0.46875,2.33203c0.25781,0.60547 0.69141,1.03125 1.29688,1.29297c0.46094,0.19531 0.94141,0.29688 1.4375,0.34375c0.94922,0.08594 2.05078,-0.06641 2.98438,-0.23047c0.26563,-0.04687 0.52734,-0.10156 0.8125,-0.15625c-0.02734,-0.81641 -0.07031,-1.91016 -0.13672,-2.69531c-0.10547,-0.00781 -0.16016,-0.02344 -0.21875,-0.01953c-0.625,0.02344 -1.41406,0.12109 -2.03906,0.13281c-0.26953,0.00391 -0.54297,-0.02344 -0.80859,-0.07812c-0.33594,-0.07031 -0.55859,-0.29297 -0.65234,-0.62891c-0.03516,-0.14062 -0.07422,-0.27734 -0.08203,-0.41797c-0.04297,-0.52734 -0.05859,-1.34375 -0.0625,-1.875c-0.01172,-1.89062 0,-5 0,-5h4v-3h-4v-4zM18.99609,17.01953c0.59375,0 1.18359,0.07031 1.77344,0.21484c1.01953,0.25 1.78125,0.79688 2.25,1.65234c0.41016,0.73438 0.63672,1.51953 0.74219,2.32813c0.125,0.97656 0.18359,1.96094 0.23828,2.57031c-0.05078,1.69141 -0.08984,3.00391 -0.46484,4.28906c-0.07812,0.27344 -0.17578,0.54297 -0.28516,0.80469c-0.42187,1.03125 -1.25391,1.66016 -2.43359,1.93359c-1.19141,0.27344 -2.39844,0.27734 -3.59766,0.00781c-1.25781,-0.28125 -2.10547,-0.96484 -2.55078,-2.05469c-0.35937,-0.88281 -0.55078,-1.79297 -0.60156,-2.72266c-0.05859,-1.04297 -0.08203,-2.08984 -0.05078,-3.13281c0.02734,-1.12891 0.19531,-2.24609 0.60547,-3.32031c0.08594,-0.22266 0.19141,-0.44141 0.30078,-0.65234c0.46875,-0.88672 1.25,-1.44141 2.29688,-1.70312c0.58984,-0.14453 1.18359,-0.21484 1.77734,-0.21484z"></path></g></g></svg>